# xmcd
#
# Track frame offsets:
#	150
#	12778
#	27181
#	36937
#	48535
#	58701
#	76157
#	91131
#	108001
#	124119
#	137351
#	148122
#	163131
#
# Disc length: 2374 seconds
#
# Revision: 5
# Processed by: cddbd v1.5.2PL0 Copyright (c) Steve Scherf et al.
# Submitted via: EasyCDDAExtractor 8.2.3.1
#
DISCID=a009440d
DTITLE=Various Artist - Bluegrass and White Snow
DYEAR=2002
DGENRE=Christmas
TTITLE0=Patty Loveless - Away In A Manger
TTITLE1=Patty Loveless - Silent Night
TTITLE2=Patty Loveless and Jon Randall - Joy To The World
TTITLE3=Patty Loveless - Carol Of The Bells (Instrumental)
TTITLE4=Patty Loveless - The First Noel
TTITLE5=Patty Loveless and Rebecca Lynn Howard - Little Drummer Boy
TTITLE6=Patty Loveless - Silver Bells
TTITLE7=Patty Loveless - O Little Town Of Bethlehem
TTITLE8=Patty Loveless - Christmas Time's A Comin'
TTITLE9=Patty Loveless - Santa Train
TTITLE10=Patty Loveless - Christmas Day At My House
TTITLE11=Patty Loveless - Beautiful Star Of Bethlehem
TTITLE12=Patty Loveless - Bluegrass  White Snow
EXTD=
EXTT0=
EXTT1=
EXTT2=
EXTT3=
EXTT4=
EXTT5=
EXTT6=
EXTT7=
EXTT8=
EXTT9=
EXTT10=
EXTT11=
EXTT12=
PLAYORDER=
